<?xml version="1.0" standalone="no"?>
<!DOCTYPE svg PUBLIC "-//W3C//DTD SVG 20010904//EN"
 "http://www.w3.org/TR/2001/REC-SVG-20010904/DTD/svg10.dtd">
<svg version="1.0" xmlns="http://www.w3.org/2000/svg"
 width="500.000000pt" height="500.000000pt" viewBox="0 0 500.000000 500.000000"
 preserveAspectRatio="xMidYMid meet">

<g transform="translate(0.000000,500.000000) scale(0.100000,-0.100000)"
fill="#000000" stroke="none">
<path d="M2127 3546 c-3 -8 -6 -131 -7 -274 0 -210 2 -261 13 -271 11 -8 113
-11 373 -9 l359 3 0 280 0 280 -366 3 c-313 2 -368 0 -372 -12z m596 -13 c-7
-2 -19 -2 -25 0 -7 3 -2 5 12 5 14 0 19 -2 13 -5z m130 -5 c9 -27 -6 -38 -49
-38 -36 0 -44 3 -44 18 0 10 3 22 7 25 12 12 81 7 86 -5z m-605 -15 c-15 -2
-42 -2 -60 0 -18 2 -6 4 27 4 33 0 48 -2 33 -4z m194 -160 c-51 -2 -132 -2
-180 0 -48 1 -6 3 93 3 99 0 138 -2 87 -3z m96 -30 c-64 -2 -172 -2 -240 0
-68 1 -15 3 117 3 132 0 187 -2 123 -3z m-148 -107 c24 -79 22 -106 -9 -106
-27 0 -34 27 -11 50 16 16 18 24 9 50 l-11 30 -31 -22 c-18 -12 -35 -27 -39
-32 -4 -6 -10 -7 -14 -3 -4 4 1 14 12 21 48 34 67 53 62 66 -3 10 -8 9 -20 -4
-9 -9 -20 -16 -25 -16 -10 1 36 40 46 40 4 0 18 -33 31 -74z m177 -88 c-2 -29
-3 -8 -3 47 0 55 1 79 3 53 2 -26 2 -71 0 -100z m153 80 c26 -28 26 -82 0
-108 -46 -46 -130 -9 -130 56 0 63 87 98 130 52z m-387 -157 c-6 -9 -20 -17
-32 -19 -27 -4 -28 22 -1 41 19 13 19 16 5 50 -24 59 -16 57 12 -2 19 -40 23
-59 16 -70z"/>
<path d="M2649 3188 c-4 -14 -3 -60 1 -63 3 -2 16 4 29 14 l23 17 -26 17 c-14
10 -26 16 -27 15z"/>
<path d="M1680 1185 l0 -195 40 0 40 0 0 90 c0 102 15 130 69 130 47 0 61 -30
61 -132 l0 -88 40 0 40 0 -1 93 c0 115 -13 154 -59 178 -42 23 -69 24 -115 5
l-35 -15 0 65 0 64 -40 0 -40 0 0 -195z"/>
<path d="M1070 1175 l0 -185 108 0 c171 0 227 25 227 100 0 34 -6 47 -31 69
l-31 28 24 27 c27 32 29 62 7 94 -29 42 -65 52 -189 52 l-115 0 0 -185z m218
113 c17 -17 15 -65 -4 -72 -9 -3 -42 -6 -75 -6 l-59 0 0 45 0 45 63 0 c36 0
68 -5 75 -12z m13 -148 c12 -7 19 -21 19 -41 0 -37 -27 -49 -111 -49 l-59 0 0
50 0 50 66 0 c36 0 74 -5 85 -10z"/>
<path d="M2053 1273 c-9 -3 -13 -29 -13 -81 1 -95 12 -149 38 -175 28 -28 113
-35 147 -13 23 15 26 15 31 1 4 -9 19 -15 40 -15 l34 0 0 139 c0 150 -2 154
-53 144 -27 -5 -27 -6 -27 -87 0 -99 -14 -126 -65 -126 -51 0 -65 27 -65 126
0 65 -3 83 -16 88 -18 7 -33 7 -51 -1z"/>
<path d="M2416 1273 c-3 -4 -6 -69 -6 -145 l0 -138 40 0 40 0 0 90 c0 99 15
130 64 130 46 0 56 -23 56 -126 l0 -94 40 0 40 0 0 90 c0 99 15 130 64 130 46
0 56 -23 56 -126 l0 -94 41 0 41 0 -4 115 c-3 108 -5 116 -29 141 -37 37 -96
43 -150 15 -38 -20 -43 -21 -59 -6 -27 24 -81 29 -124 11 -45 -19 -49 -19 -41
-6 3 6 3 11 -2 11 -44 6 -62 7 -67 2z"/>
<path d="M3003 1263 c-43 -15 -43 -15 -28 -43 l14 -28 43 16 c38 13 47 13 73
1 16 -8 31 -22 33 -32 3 -14 -4 -17 -40 -17 -129 0 -189 -71 -119 -141 24 -23
38 -29 73 -29 24 0 53 7 64 15 25 19 34 19 34 0 0 -10 11 -15 35 -15 l35 0 0
100 c0 117 -12 149 -64 174 -41 20 -97 19 -153 -1z m137 -173 c0 -42 -80 -65
-103 -29 -20 32 -1 49 53 49 43 0 50 -3 50 -20z"/>
<path d="M3411 1265 c-39 -18 -44 -18 -36 -5 4 6 -10 10 -34 10 l-41 0 0 -140
0 -140 40 0 40 0 0 90 c0 101 15 130 68 130 50 0 62 -25 62 -128 l0 -92 40 0
40 0 0 100 c0 118 -14 154 -65 176 -43 18 -71 17 -114 -1z"/>
<path d="M3735 1266 c-54 -23 -85 -70 -85 -128 0 -61 21 -99 70 -127 70 -39
169 -20 214 42 29 39 28 122 -2 164 -39 55 -132 78 -197 49z m124 -82 c25 -32
26 -55 6 -94 -34 -65 -127 -41 -133 34 -5 56 19 86 68 86 30 0 43 -6 59 -26z"/>
<path d="M1460 1140 l0 -30 75 0 75 0 0 30 0 30 -75 0 -75 0 0 -30z"/>
<path d="M1030 770 c0 -36 -2 -40 -17 -32 -26 14 -62 -3 -74 -35 -11 -28 3
-101 19 -104 4 -1 31 -3 60 -4 l52 -2 0 108 c0 102 -1 109 -20 109 -17 0 -20
-7 -20 -40z m-2 -104 c-5 -67 -57 -62 -58 6 0 29 24 50 47 41 10 -4 13 -19 11
-47z"/>
<path d="M2090 776 c0 -33 -2 -34 -36 -33 -44 1 -64 -21 -64 -73 0 -58 22 -79
80 -78 l49 1 3 93 c4 108 1 124 -18 124 -9 0 -14 -11 -14 -34z m-11 -70 c7 -8
11 -30 9 -48 -2 -28 -7 -33 -28 -33 -21 0 -26 5 -28 33 -3 31 11 62 28 62 4 0
13 -6 19 -14z"/>
<path d="M806 791 c-7 -10 -76 -191 -76 -197 0 -15 39 0 47 18 7 15 20 22 46
25 32 2 39 -1 47 -22 6 -15 17 -25 30 -25 20 0 17 14 -49 183 -10 26 -34 36
-45 18z m38 -98 c6 -20 4 -23 -18 -23 -29 0 -31 6 -15 47 11 30 19 24 33 -24z"/>
<path d="M1450 765 c0 -7 -8 -18 -17 -24 -17 -9 -17 -11 -1 -23 12 -9 18 -30
20 -68 3 -52 5 -55 31 -58 29 -4 39 21 12 32 -22 8 -20 82 3 96 16 10 16 10 0
20 -10 6 -18 18 -18 25 0 8 -7 15 -15 15 -8 0 -15 -7 -15 -15z"/>
<path d="M2490 761 c0 -11 -6 -22 -12 -25 -10 -5 -10 -7 0 -12 7 -3 12 -26 12
-58 0 -29 5 -57 12 -64 17 -17 58 -15 58 3 0 8 -7 15 -15 15 -19 0 -22 95 -2
104 10 5 10 7 0 12 -7 3 -13 14 -13 25 0 12 -7 19 -20 19 -13 0 -20 -7 -20
-19z"/>
<path d="M4040 761 c0 -11 -6 -22 -12 -25 -10 -5 -10 -7 0 -12 7 -3 12 -24 12
-50 0 -25 5 -54 10 -65 13 -23 60 -26 60 -4 0 8 -7 15 -15 15 -11 0 -15 12
-15 50 0 38 4 50 15 50 8 0 15 5 15 10 0 6 -7 10 -15 10 -8 0 -15 9 -15 20 0
13 -7 20 -20 20 -13 0 -20 -7 -20 -19z"/>
<path d="M1153 742 c-50 -8 -71 -94 -33 -132 47 -47 120 -11 120 58 0 53 -35
83 -87 74z m36 -36 c7 -8 11 -30 9 -48 -2 -28 -7 -33 -28 -33 -21 0 -26 5 -28
33 -3 31 11 62 28 62 4 0 13 -6 19 -14z"/>
<path d="M1332 741 c-7 -4 -24 -6 -38 -3 l-24 4 0 -106 c0 -99 1 -106 20 -106
16 0 20 7 20 35 0 32 2 34 28 29 44 -8 67 16 67 71 0 37 -5 51 -24 66 -26 21
-30 22 -49 10z m26 -33 c14 -14 16 -57 3 -76 -5 -8 -17 -12 -27 -10 -14 2 -20
13 -22 42 -4 48 19 71 46 44z"/>
<path d="M1572 743 c-12 -3 -27 -13 -32 -24 -9 -16 -7 -19 8 -19 10 0 23 5 29
11 15 15 43 4 43 -16 0 -9 -9 -15 -26 -15 -38 0 -64 -18 -64 -44 0 -34 18 -44
78 -44 l52 0 0 57 c0 78 -26 105 -88 94z m46 -100 c-2 -10 -13 -19 -26 -21
-17 -3 -22 2 -22 17 0 16 6 21 26 21 19 0 25 -5 22 -17z"/>
<path d="M1863 738 c-25 -12 -31 -38 -10 -38 7 0 18 5 24 11 15 15 43 4 43
-16 0 -10 -10 -15 -29 -15 -31 0 -61 -22 -61 -45 0 -28 30 -44 80 -43 l50 1 0
62 c0 38 -5 66 -12 72 -21 17 -62 22 -85 11z m55 -95 c-4 -22 -48 -31 -48 -10
0 19 10 27 32 27 13 0 18 -6 16 -17z"/>
<path d="M2191 737 c-32 -16 -39 -37 -13 -37 11 0 22 5 24 12 6 16 38 2 38
-17 0 -10 -10 -15 -29 -15 -34 0 -62 -31 -54 -60 6 -23 22 -28 83 -28 l45 0
-3 63 c-2 35 -9 68 -15 73 -23 18 -52 22 -76 9z m49 -97 c0 -15 -7 -20 -25
-20 -24 0 -34 18 -18 33 15 15 43 7 43 -13z"/>
<path d="M2386 743 c-3 -3 -19 -6 -36 -5 l-30 1 0 -105 c0 -82 3 -104 14 -104
15 0 26 21 26 49 0 14 6 17 25 13 39 -7 65 22 65 73 0 22 -6 48 -12 57 -15 18
-43 29 -52 21z m28 -59 c8 -31 -9 -64 -33 -64 -25 0 -35 77 -12 90 21 12 38 2
45 -26z"/>
<path d="M2625 742 c-23 -5 -45 -21 -45 -33 0 -13 27 -11 50 4 17 10 22 9 30
-3 16 -25 12 -30 -23 -30 -38 0 -57 -15 -57 -46 0 -32 19 -42 76 -42 l52 0 -5
62 c-7 80 -24 99 -78 88z m45 -97 c0 -9 -7 -18 -15 -21 -23 -9 -45 3 -39 21 8
20 54 20 54 0z"/>
<path d="M3070 738 c-32 -12 -40 -25 -40 -70 0 -70 66 -102 112 -56 27 27 9
37 -29 17 -22 -12 -27 -11 -39 6 -18 25 -18 50 2 69 19 20 33 20 40 1 6 -15
44 -22 44 -7 -1 30 -53 54 -90 40z"/>
<path d="M3233 742 c-50 -8 -71 -94 -33 -132 47 -47 120 -11 120 58 0 53 -35
83 -87 74z m36 -36 c7 -8 11 -30 9 -48 -2 -28 -7 -33 -28 -33 -21 0 -26 5 -28
33 -3 31 11 62 28 62 4 0 13 -6 19 -14z"/>
<path d="M3426 743 c-3 -3 -22 -6 -41 -5 l-35 1 0 -74 c0 -68 2 -75 20 -75 18
0 20 7 20 59 0 39 4 61 13 64 28 10 37 -6 37 -64 0 -52 2 -59 20 -59 18 0 20
7 20 59 0 45 4 60 16 65 27 10 34 -3 34 -65 0 -52 2 -59 20 -59 18 0 20 7 20
54 0 30 -3 62 -6 70 -10 27 -40 38 -67 25 -18 -8 -30 -8 -44 0 -11 5 -23 7
-27 4z"/>
<path d="M3667 744 c-4 -4 -18 -7 -33 -8 l-25 -1 -1 -100 c-1 -86 1 -100 15
-103 13 -3 17 4 17 32 0 34 1 35 34 29 27 -4 36 -1 50 18 19 28 21 89 4 111
-15 18 -51 31 -61 22z m22 -38 c7 -8 11 -30 9 -48 -2 -28 -7 -33 -28 -33 -21
0 -26 5 -28 33 -3 31 11 62 28 62 4 0 13 -6 19 -14z"/>
<path d="M3801 737 c-14 -6 -26 -18 -29 -24 -5 -16 30 -17 45 -2 13 13 33 4
33 -17 0 -9 -10 -14 -29 -14 -41 0 -67 -35 -47 -65 10 -16 25 -20 67 -22 l54
-1 -3 64 c-3 52 -8 67 -25 79 -26 18 -35 18 -66 2z m52 -97 c-6 -21 -37 -27
-48 -10 -10 16 4 30 30 30 18 0 22 -4 18 -20z"/>
<path d="M3981 741 c-7 -5 -22 -6 -32 -4 -17 5 -19 -1 -19 -71 0 -69 2 -76 20
-76 18 0 20 7 20 56 0 47 3 57 20 61 20 5 27 27 12 37 -4 2 -14 1 -21 -3z"/>
<path d="M2805 723 c47 -122 52 -163 20 -163 -8 0 -15 -7 -15 -15 0 -16 27
-20 47 -7 7 4 28 52 48 106 35 97 35 97 13 94 -17 -2 -25 -13 -32 -40 -5 -21
-13 -38 -16 -38 -4 0 -12 18 -19 40 -9 30 -17 40 -32 40 -16 0 -19 -4 -14 -17z"/>
<path d="M4147 722 c-24 -26 -22 -87 3 -112 24 -24 68 -26 96 -5 20 15 18 17
-36 19 -24 1 -36 6 -38 19 -3 14 4 17 42 17 40 0 46 3 46 21 0 11 -5 29 -10
40 -14 26 -80 26 -103 1z m71 -14 c19 -19 14 -28 -18 -28 -16 0 -30 4 -30 8 0
9 21 32 30 32 3 0 11 -5 18 -12z"/>
<path d="M1696 589 c-8 -41 -8 -49 2 -49 10 0 32 45 32 65 0 28 -28 15 -34
-16z"/>
</g>
</svg>
