<?xml version="1.0" encoding="UTF-8"?>
<!DOCTYPE svg PUBLIC "-//W3C//DTD SVG 1.1//EN" "http://www.w3.org/Graphics/SVG/1.1/DTD/svg11.dtd">
<!-- Creator: CorelDRAW 2018 (64-Bit) -->
<svg xmlns="http://www.w3.org/2000/svg" xml:space="preserve" width="5714px" height="1400px" version="1.1" style="shape-rendering:geometricPrecision; text-rendering:geometricPrecision; image-rendering:optimizeQuality; fill-rule:evenodd; clip-rule:evenodd"
viewBox="0 0 5838.49 1431.08"
 xmlns:xlink="http://www.w3.org/1999/xlink">
 <defs>
  <style type="text/css">
   <![CDATA[
    .fil0 {fill:#FEFEFE}
   ]]>
  </style>
 </defs>
 <g id="Layer_x0020_1">
  <metadata id="CorelCorpID_0Corel-Layer"/>
  <g id="_3111766902544">
   <path class="fil0" d="M2466.38 535.65c-1.48,127.26 -1.48,250.07 0,392.12l1.48 71.03 59.18 0 59.19 0 0 -131.69c0,-142.06 11.84,-170.17 81.39,-187.93 72.5,-17.75 90.26,10.36 102.1,156.85 5.92,73.99 5.92,140.57 1.48,147.97 -5.92,8.88 19.24,14.8 57.71,14.8l68.06 0 0 -145.01c0,-159.81 -23.67,-232.31 -88.78,-264.87 -48.83,-25.15 -131.69,-23.67 -180.52,1.48l-41.44 22.2 0 -103.58 0 -102.1 -59.19 0 -59.18 0 -1.48 128.74 0 -0.01z"/>
   <path class="fil0" d="M1565.24 725.06l0 273.74 177.56 0c198.28,0 261.91,-17.75 303.34,-79.9 34.03,-51.79 20.72,-139.09 -28.12,-179.04 -35.51,-29.6 -35.51,-29.6 -7.4,-65.11 31.08,-36.99 36.99,-105.06 13.32,-150.93 -31.07,-56.23 -91.74,-72.51 -281.14,-72.51l-177.57 0 0 273.75 0.01 0zm301.85 -170.17c26.64,10.35 38.48,25.15 38.48,50.31 0,48.83 -38.48,68.06 -139.1,68.06l-82.86 0 0 -56.23c0,-31.07 4.44,-62.15 10.35,-66.58 14.8,-14.8 130.22,-11.84 173.13,4.43l0 0.01zm35.52 230.83c35.51,25.16 42.91,63.63 14.8,91.74 -10.36,10.36 -62.15,17.76 -125.78,17.76l-108.02 0 0 -56.23c0,-31.08 4.44,-62.15 10.36,-66.59 19.23,-20.72 174.6,-10.36 208.64,13.32l0 0z"/>
   <path class="fil0" d="M3000.55 710.26c0,155.37 20.72,224.91 75.47,264.87 39.95,28.11 147.97,31.07 195.32,7.39 23.67,-13.31 32.55,-13.31 36.99,0 2.96,8.88 31.07,16.28 63.63,16.28l57.71 0 0 -214.55 0 -214.56 -57.71 0 -57.71 0 -5.92 142.05c-2.96,119.86 -8.88,145.01 -32.55,162.77 -36.99,26.63 -103.58,26.63 -124.3,1.48 -8.87,-10.36 -19.23,-82.87 -20.71,-159.81l-4.44 -139.09 -62.15 -4.44 -63.62 -4.44 0 142.06 -0.01 -0.01z"/>
   <path class="fil0" d="M3548.05 784.25l0 214.55 59.18 0 59.19 0 0 -119.85c0,-147.97 25.15,-204.2 93.22,-205.68 13.32,0 38.47,13.32 54.75,29.59 25.16,25.16 29.6,48.84 29.6,162.77l0 133.18 59.19 0 59.18 0 0 -124.3c0,-102.1 5.92,-130.21 31.08,-162.77 17.75,-22.19 44.39,-38.47 65.1,-38.47 60.67,0 81.39,50.31 81.39,195.33l0 130.21 59.19 0 59.18 0 0 -155.37c0,-87.31 -7.39,-170.17 -17.75,-192.37 -36.99,-79.9 -170.17,-106.53 -260.43,-51.78l-48.83 29.59 -38.47 -29.59c-44.39,-35.52 -127.26,-38.48 -184.97,-8.88 -35.51,19.23 -41.43,19.23 -41.43,0 0,-14.8 -17.75,-20.72 -59.19,-20.72l-59.18 0 0 214.56 0 0z"/>
   <path class="fil0" d="M4450.67 580.04c-11.84,4.44 -36.99,14.8 -56.24,20.72 -32.55,11.83 -32.55,14.8 -10.35,57.71 19.23,36.99 28.11,42.91 51.79,29.59 14.8,-7.4 57.7,-14.8 94.7,-14.8 51.79,0 71.02,7.4 82.87,28.12 7.39,16.28 14.79,32.55 14.79,35.51 0,2.97 -47.35,10.36 -106.54,13.32 -91.74,7.4 -110.97,13.32 -140.57,47.35 -97.66,113.94 34.03,248.59 190.88,195.33 31.08,-11.84 56.23,-14.8 56.23,-7.4 0,7.4 26.64,13.31 59.19,13.31l59.19 0 0 -146.49c0,-173.12 -11.84,-213.08 -76.94,-253.03 -47.36,-28.11 -165.73,-38.47 -219,-19.23l0 -0.01zm177.56 270.79c0,66.59 -134.65,96.19 -158.32,34.04 -13.32,-34.04 35.51,-63.63 102.1,-63.63 45.87,0 56.23,5.92 56.23,29.6l-0.01 -0.01z"/>
   <path class="fil0" d="M4864.98 784.25l0 214.55 59.19 0 59.19 0 0 -125.77c0,-115.42 2.96,-130.21 36.99,-162.77 39.95,-41.43 76.94,-45.87 119.86,-16.28 23.67,17.76 29.59,42.91 32.55,162.77l5.92 142.05 59.19 0 59.18 0 -5.91 -171.64 -4.44 -171.65 -48.83 -42.91c-54.75,-50.31 -139.09,-57.71 -210.12,-20.72 -39.95,20.72 -44.39,20.72 -44.39,0 0,-16.28 -16.28,-22.19 -59.19,-22.19l-59.19 0 0 214.56z"/>
   <path class="fil0" d="M5483.5 600.76c-137.61,72.5 -143.53,285.58 -8.88,368.45 69.55,42.91 198.28,41.43 264.87,-4.44 139.09,-93.22 130.21,-294.46 -17.75,-368.45 -66.59,-34.03 -170.17,-32.55 -238.24,4.44zm195.33 102.1c39.95,39.95 39.95,133.17 0,170.16 -69.55,63.63 -177.57,10.36 -177.57,-87.3 0,-97.66 110.98,-149.45 177.57,-82.86l0 0z"/>
   <polygon class="fil0" points="2142.32,776.85 2142.32,821.24 2253.3,821.24 2364.28,821.24 2364.28,776.85 2364.28,732.46 2253.3,732.46 2142.32,732.46 "/>
  </g>
  <path class="fil0" d="M692.35 5.96c-13.2,7.24 -21.29,22.57 -21.71,40.02 0,21.72 22.99,43.43 46.41,43.43 23.84,0 42.57,-16.6 45.98,-41.3 2.13,-16.6 0.85,-19.58 -12.77,-33.21 -11.92,-11.92 -18.31,-14.9 -31.08,-14.9 -9.37,0.43 -21.29,2.98 -26.83,5.96z"/>
  <path class="fil0" d="M646.37 109c-20.86,22.56 -26.82,39.59 -26.82,77.91 0,32.79 10.64,51.95 34.06,61.31 34.91,14.48 36.19,15.33 28.95,15.33 -4.26,0.43 -15.33,-2.55 -24.7,-6.39 -15.75,-6.38 -17.88,-6.38 -28.95,0.86 -6.38,4.25 -22.56,17.88 -35.76,30.65 -25.55,24.27 -29.81,34.92 -18.74,49.82 7.67,10.64 25.13,9.79 71.96,-3.83 40.87,-12.35 65.57,-13.63 94.09,-5.97 17.04,4.69 20.02,4.26 28.11,-2.98 11.06,-9.79 11.06,-25.12 0,-36.19 -4.69,-4.68 -6.82,-8.51 -5.11,-8.51 10.22,0 18.3,17.03 17.03,34.49l-1.28 18.3 35.34 6.39c39.17,6.81 44.71,4.68 49.39,-16.6 3.4,-13.63 2.55,-14.91 -35.77,-44.28 -25.54,-20.02 -33.63,-23.85 -42.57,-21.72 -5.96,1.28 -26.4,3.83 -45.56,5.11 -31.93,2.13 -35.34,1.7 -35.34,-5.11 0,-5.96 1.28,-6.39 6.39,-2.13 10.64,8.94 57.9,2.56 78.34,-10.22 21.71,-14.05 25.97,-22.14 25.97,-50.66 0,-25.55 -9.37,-57.06 -23.84,-80.48 -13.63,-21.28 -38.75,-29.8 -57.06,-19.15 -14.9,8.94 -22.99,8.94 -29.8,0.85 -2.98,-3.83 -12.35,-6.39 -22.57,-6.39 -14.9,0 -19.58,2.56 -35.76,19.59l0 0zm17.46 57.9c-1.71,12.35 -4.69,25.55 -6.82,28.95 -3.83,6.39 -2.55,-9.79 3.41,-39.59 4.26,-20.01 6.39,-12.35 3.41,10.64zm117.08 25.12c0.43,19.59 -10.22,29.38 -34.48,31.94l-18.31 2.12 21.29 -7.66 21.29 -7.66 1.7 -25.55c0.85,-18.31 2.13,-22.99 4.68,-17.03 2.13,4.68 3.83,15.33 3.83,23.84l0 0zm-93.24 30.66c4.26,1.7 3.41,2.55 -2.56,2.55 -5.1,0.43 -13.62,-3.4 -19.16,-8.09l-10.21 -8.94 12.77 5.96c7.24,3.41 15.75,7.24 19.16,8.52l0 0zm28.53 5.53c-1.28,1.28 -5.11,1.71 -8.09,0.43 -3.41,-1.28 -2.13,-2.56 2.55,-2.56 4.69,-0.42 7.24,0.86 5.54,2.13zm33.21 48.54c5.53,2.56 -7.24,3.83 -36.19,3.83 -24.7,0.43 -48.97,1.71 -54.08,2.98 -5.53,1.71 -9.79,0.85 -9.79,-1.7 0,-2.56 5.11,-5.54 11.92,-6.39 21.29,-3.4 79.62,-2.55 88.14,1.28l0 0z"/>
  <path class="fil0" d="M219.32 196.71c-5.53,2.98 -14.9,12.34 -20.44,20.43 -13.19,19.59 -10.64,40.02 7.67,56.2 41.3,37.47 102.18,-23.41 65.14,-64.71 -13.62,-15.33 -36.19,-20.01 -52.37,-11.92z"/>
  <path class="fil0" d="M1179.43 208.2c-13.19,5.54 -23.41,19.16 -25.97,35.34 -4.68,28.53 18.74,54.5 49.82,54.5 16.6,0 42.15,-23.84 42.15,-39.6 0,-37.46 -34.06,-63.01 -66,-50.24l0 0z"/>
  <path class="fil0" d="M310.86 235.88c-15.33,6.38 -20.86,13.2 -26.4,30.23 -2.98,8.94 -8.09,14.05 -18.73,17.45 -22.14,7.67 -31.51,23.42 -30.66,51.52 1.71,31.08 10.22,48.11 38.32,73.66 20.87,19.16 25.12,21.29 43.01,21.29 12.35,0 26.82,-3.41 37.04,-8.94 13.2,-7.24 15.75,-7.67 11.07,-2.13 -3.41,4.26 -12.35,9.79 -20.01,13.2 -12.35,5.11 -14.05,7.66 -16.61,28.52 -1.27,12.35 -2.13,34.07 -1.27,47.69 0.85,21.29 2.98,26.4 12.34,33.21 17.89,13.63 29.38,4.69 54.5,-43 22.57,-43.43 44.71,-70.25 67.7,-82.18 12.35,-6.38 14.05,-9.36 12.77,-21.28 -0.85,-11.07 -4.68,-15.76 -16.18,-21.72l-14.9 -8.09 14.48 2.56c8.09,1.27 14.9,2.98 15.33,3.83 0.85,0.42 3.83,5.96 6.81,12.35l5.96 11.92 28.95 -19.59c16.18,-10.64 30.23,-22.14 31.51,-25.54 3.83,-9.8 -10.22,-35.77 -18.73,-35.77 -4.26,0 -24.7,2.98 -45.99,6.39 -20.86,3.4 -39.17,6.39 -40.45,6.39 -1.7,0 -5.11,6.38 -7.66,14.47 -7.66,20.86 -42.15,58.33 -50.67,54.92 -4.68,-1.7 -3.4,-3.83 5.54,-7.66 14.05,-5.96 36.19,-35.34 43.85,-57.05 10.65,-32.36 -8.94,-62.59 -57.05,-85.58 -32.36,-15.33 -47.69,-18.31 -63.87,-11.07l0 0zm67.27 51.52c8.52,5.96 17.03,15.75 18.31,21.28 3.41,12.78 -4.26,32.79 -16.6,43.43 -9.37,8.52 -7.67,3.83 6.81,-17.03 11.07,-16.18 6.81,-29.38 -14.9,-45.13 -21.29,-15.75 -16.18,-17.88 6.38,-2.55zm-68.55 101.33c2.98,0.85 4.26,2.98 2.56,4.68 -2.98,3.83 -37.47,-38.32 -37.47,-45.55 0,-2.98 6.81,4.68 14.9,17.03 8.09,11.92 17.03,22.56 20.02,23.84l-0.01 0zm60.46 -20.44c-1.7,3.41 -3.4,6.39 -4.25,6.39 -0.86,0 -1.71,-2.98 -1.71,-6.39 0,-3.4 1.71,-6.38 4.26,-6.38 2.13,0 2.98,2.98 1.7,6.38zm35.77 34.91c-15.33,16.18 -30.23,33.22 -32.79,38.32 -2.98,5.54 -6.81,9.8 -9.36,9.8 -2.56,0 -2.13,-3.84 0.85,-9.8 6.81,-12.77 59.61,-66.84 65.14,-66.84 2.56,0 -8.09,12.77 -23.84,28.52zm-60.89 -15.75c-4.26,4.69 -12.77,8.52 -18.73,8.52 -9.79,0 -9.37,-1.28 5.96,-8.09 21.71,-10.65 21.71,-10.65 12.77,-0.43z"/>
  <path class="fil0" d="M1064.48 246.1c-9.37,4.25 -27.68,17.88 -40.45,29.37 -22.99,21.29 -23.42,22.14 -22.99,45.13 0,14.48 2.55,27.25 7.23,34.07 8.95,13.62 9.37,18.3 0.86,11.49 -3.41,-2.98 -8.09,-12.35 -10.65,-21.29 -4.26,-15.32 -5.53,-16.18 -28.95,-20.43 -54.5,-10.22 -68.97,-10.65 -77.92,-2.56 -8.09,7.24 -10.64,25.12 -4.68,34.06 1.7,2.56 19.16,15.33 39.17,28.53 40.88,26.4 58.76,43.85 71.96,69.83 13.2,25.97 35.34,29.8 47.26,7.66 8.51,-15.75 -0.86,-32.36 -39.17,-71.53 -18.74,-18.73 -32.36,-34.91 -31.09,-36.62 4.26,-4.25 60.46,56.63 70.26,76.22 11.92,23.41 8.51,41.72 -8.95,48.11 -14.9,5.96 -14.9,6.81 -3.4,29.8 20.44,40.45 32.78,48.97 55.35,37.05 8.94,-5.11 10.22,-21.72 5.53,-73.24 -2.55,-24.27 -4.25,-28.95 -13.19,-32.78 -15.33,-6.81 -52.38,-43.01 -52.38,-51.09 0.43,-4.26 2.56,-2.98 6.39,4.25 6.81,12.78 37.04,37.9 54.5,45.56 6.39,2.98 17.46,5.11 23.84,5.11 26.83,0 70.68,-48.11 81.75,-89.41 7.24,-26.83 -2.55,-47.26 -26.39,-56.63 -14.06,-5.53 -16.61,-8.51 -16.61,-18.73 0,-8.09 -4.26,-16.61 -12.77,-24.7 -16.61,-15.75 -49.39,-19.16 -74.51,-7.23l0 0zm23.41 34.48c0,2.13 -3.83,5.11 -8.09,6.81 -4.68,1.28 -15.32,7.24 -23.84,13.2 -8.52,5.54 -14.05,8.09 -12.77,5.54 2.55,-4.26 40.02,-29.38 43.43,-29.38 0.85,0 1.27,1.7 1.27,3.83l0 0zm-45.13 57.91l6.81 17.03 -8.51 -10.22c-4.69,-5.54 -8.52,-13.63 -8.52,-18.73 0,-11.07 1.7,-8.95 10.22,11.92l0 0zm19.59 31.93c0,2.13 -0.85,4.26 -1.71,4.26 -1.27,0 -3.4,-2.13 -4.68,-4.26 -1.28,-2.55 -0.43,-4.26 1.7,-4.26 2.56,0 4.69,1.71 4.69,4.26zm78.34 14.9c-6.81,10.65 -20.44,20.44 -29.38,21.29 -7.24,0.85 -25.12,-9.37 -33.63,-18.73 -10.65,-11.92 -7.24,-11.5 10.21,1.7 19.16,14.05 26.83,13.63 43.43,-3.83 15.76,-16.61 20.44,-17.03 9.37,-0.43z"/>
  <path class="fil0" d="M1096.41 566.27c-4.68,4.69 -8.52,10.22 -8.52,12.35 0,2.13 3.84,22.57 8.52,45.13 9.79,47.26 10.64,78.77 3.4,106.45 -3.83,14.05 -3.83,21.71 -0.85,26.82 5.54,8.94 29.81,11.92 38.32,4.68 3.41,-2.55 5.96,-2.98 5.96,-0.42 0,8.09 -22.99,14.47 -36.19,9.36 -6.38,-2.55 -12.35,-3.83 -12.77,-3.4 -0.43,0.85 -4.68,16.6 -9.79,35.34l-9.37 34.06 11.07 9.37c5.96,5.53 14.48,9.79 18.73,9.79 11.93,0 69.83,-66.85 65.57,-75.79 -1.7,-4.26 -3.83,-23.84 -5.11,-44.7 -1.7,-33.64 -0.85,-37.05 5.96,-37.05 5.97,0 6.39,1.28 2.56,5.11 -8.52,8.52 -6.39,56.63 3.41,75.79 15.32,30.23 40.44,38.74 86,29.8 40.02,-7.66 57.91,-18.3 67.7,-40.45 7.66,-17.45 8.09,-20.01 1.7,-31.5 -8.51,-17.03 -8.09,-22.99 2.56,-32.79 14.9,-13.2 8.94,-37.89 -14.48,-60.03 -21.71,-20.44 -40.87,-26.83 -80.47,-26.83 -28.1,0 -29.38,0.43 -45.56,16.61 -8.94,8.94 -17.88,22.56 -19.58,30.23 -1.7,7.24 -3.83,12.35 -5.11,11.07 -1.28,-1.28 0.85,-11.07 5.11,-21.72l7.24 -19.58 -11.93 -17.88c-35.76,-54.5 -55.77,-68.13 -74.08,-49.82l0 0zm59.18 118.37c-0.42,22.57 -1.7,45.98 -3.4,51.94 -2.13,5.97 -3.41,-13.19 -2.98,-43.42 0.42,-29.38 1.7,-52.8 3.83,-51.52 1.7,0.85 2.98,20.43 2.55,43l0 0zm58.33 -13.2c-3.4,6.39 -6.38,9.37 -6.81,6.39 0,-7.24 8.52,-23.42 11.5,-20.87 0.85,1.28 -0.86,7.67 -4.69,14.48zm71.11 -7.66c2.98,2.98 -1.28,2.98 -12.35,0 -24.27,-6.39 -27.25,-8.52 -8.52,-5.96 9.37,0.85 18.74,3.83 20.86,5.96l0.01 0zm-77.92 50.66c0,6.39 -0.85,6.39 -4.26,0.86 -5.53,-8.52 -5.53,-14.06 0,-10.65 2.56,1.28 4.26,5.96 4.26,9.79l0 0zm10.22 52.8c2.55,1.7 15.33,3.4 28.1,3.83 21.29,0 22.14,0.85 11.49,4.68 -16.18,5.97 -39.59,0.86 -47.68,-10.64 -3.41,-5.11 -6.39,-15.75 -5.96,-24.27 0.42,-14.9 0.42,-14.47 4.68,4.26 2.56,10.64 6.39,20.44 9.37,22.14l0 0z"/>
  <path class="fil0" d="M287.44 611.41c-17.88,21.29 -27.25,35.76 -26.82,41.72 7.24,60.89 6.39,83.45 -3.41,83.45 -2.55,0 -2.12,-3.4 0.86,-9.36 6.38,-11.5 2.13,-58.33 -6.39,-74.51 -12.77,-24.7 -21.29,-28.96 -61.74,-28.96 -30.65,0 -40.45,1.71 -60.03,11.07 -19.16,8.94 -25.12,14.48 -31.51,28.96 -8.09,17.03 -8.09,18.3 -0.85,33.21 7.24,14.9 7.24,15.75 -1.28,27.25 -5.11,6.81 -8.94,18.73 -8.94,27.25 0,12.77 3.41,18.73 20.44,35.76 21.71,21.29 28.52,24.27 77.06,28.53 26.83,2.55 28.95,2.13 42.58,-9.37 8.09,-6.81 19.16,-21.71 24.27,-33.64 6.81,-14.47 9.36,-17.45 7.24,-8.51 -1.28,6.81 -5.11,17.88 -8.94,23.84 -5.97,10.22 -5.54,12.35 3.83,25.97 38.74,56.21 53.64,68.55 71.53,59.19 13.62,-7.24 14.47,-20.44 5.11,-68.13 -10.65,-52.79 -11.07,-69.4 -2.13,-95.8 11.07,-32.35 -4.26,-51.94 -29.81,-38.31 -5.96,2.98 -11.07,3.4 -11.07,1.27 0,-8.51 20.02,-13.62 34.07,-8.94 14.9,5.54 13.19,8.09 25.54,-35.34l8.52 -29.8 -10.65 -9.79c-18.73,-16.18 -27.25,-12.35 -57.48,22.99l0 0zm-71.1 51.94c3.83,4.26 8.09,17.46 9.37,28.95l2.13 20.87 -5.96 -22.57c-2.98,-12.35 -6.82,-23.42 -8.09,-24.69 -1.28,-1.28 -11.5,-3.84 -23,-5.96l-20.43 -3.41 19.58 -0.43c14.05,-0.42 21.72,1.71 26.4,7.24zm63.02 79.62c-2.56,44.71 -3.41,52.37 -6.39,38.75 -4.69,-20.87 2.13,-102.61 8.09,-95.38 0.42,0.86 -0.43,25.97 -1.7,56.63zm-52.8 -14.05c-1.28,3.41 -2.56,2.13 -2.56,-2.56 -0.42,-4.68 0.86,-7.23 2.13,-5.53 1.28,1.28 1.71,5.11 0.43,8.09zm-9.37 40.02c-9.79,15.33 -11.92,10.65 -2.98,-7.66 3.83,-8.09 7.67,-12.35 8.52,-8.94 0.85,3.4 -1.7,10.64 -5.54,16.6l0 0zm-36.19 5.96l14.9 3.41 -14.9 0c-8.09,0.42 -20.44,-2.13 -27.67,-5.96l-12.78 -5.96 12.78 2.55c7.23,1.7 19.58,4.26 27.67,5.96z"/>
  <path class="fil0" d="M15.8 674.85c-22.99,19.58 -20.43,59.18 4.69,74.51 29.37,17.88 57.05,5.53 68.12,-30.66 3.83,-11.92 -5.11,-36.61 -17.03,-45.98 -15.33,-11.92 -40.02,-11.5 -55.78,2.13z"/>
  <path class="fil0" d="M1365.07 679.96c-14.47,7.23 -25.97,26.39 -25.97,43.85 0,28.53 31.08,51.52 57.9,42.58 26.83,-8.94 38.32,-36.62 27.25,-65.57 -8.09,-21.29 -37.04,-31.51 -59.18,-20.86l0 0z"/>
  <path class="fil0" d="M347.48 892.84c-8.52,7.24 -8.94,10.22 -5.96,51.52l2.55 43.43 25.97 18.73c26.83,19.16 44.71,42.15 36.62,47.26 -2.13,1.28 -4.26,-0.85 -4.26,-4.68 0,-12.35 -35.34,-42.58 -59.18,-50.67 -20.01,-6.39 -22.14,-6.39 -36.62,0.43 -28.95,13.62 -65.99,68.12 -65.99,96.65 0,17.03 12.35,41.3 20.86,41.3 12.35,0 22.14,10.22 25.55,25.54 3.83,19.59 25.12,34.06 48.96,34.06 30.23,0 46.84,-7.66 74.08,-33.21 25.98,-23.84 26.4,-24.69 26.4,-46.83 0,-12.35 -2.98,-28.53 -6.81,-35.34 -3.41,-7.24 -5.53,-14.05 -4.68,-14.9 2.13,-2.56 15.75,25.12 15.75,31.93 0,7.24 14.48,11.5 57.05,17.03 37.9,5.11 37.9,5.11 48.54,-5.11 17.88,-17.88 11.07,-29.38 -36.61,-60.03 -46.84,-30.66 -61.32,-44.71 -71.11,-67.7 -8.51,-20.86 -23.42,-28.1 -37.89,-18.73 -6.81,4.68 -11.07,11.92 -12.35,20.86 -1.7,13.62 -1.7,13.62 -2.13,-2.13 -0.85,-14.05 0.85,-17.03 13.63,-24.69l14.47 -8.52 -14.9 -26.4c-8.09,-14.47 -16.61,-28.95 -19.16,-31.93 -6.39,-7.24 -22.14,-6.39 -32.78,2.13l0 0zm102.18 171.16c6.82,5.11 12.35,11.07 12.35,13.63 0,7.66 -34.49,-22.14 -53.65,-46.84 -26.39,-34.06 -22.99,-36.19 5.11,-3.4 12.78,14.9 29.38,31.5 36.19,36.61zm-102.18 -26.4c6.38,3.84 13.2,9.37 14.05,12.35 1.28,2.98 -4.69,0.85 -13.2,-5.11 -20.01,-13.2 -23.42,-12.77 -41.3,4.26 -18.31,17.03 -20.86,11.5 -2.98,-6.39 14.48,-14.05 25.55,-15.32 43.43,-5.11l0 0zm33.21 26.4c3.4,2.13 3.83,4.69 1.28,6.39 -2.13,1.28 -6.39,-0.43 -9.37,-3.83 -5.96,-6.81 -1.28,-8.52 8.09,-2.56zm20.86 40.88c-0.85,5.1 -2.98,2.98 -6.39,-6.82 -5.1,-12.77 -4.68,-13.62 1.28,-7.23 3.83,3.4 5.96,9.79 5.11,14.05l0 0zm-8.94 26.82c-3.83,4.26 -15.33,12.35 -25.12,17.88 -22.57,11.92 -19.16,7.67 8.09,-10.64 24.27,-16.61 26.4,-17.46 17.03,-7.24l0 0z"/>
  <path class="fil0" d="M1072.57 889.01c-2.56,1.7 -14.05,20.01 -25.55,41.3 -21.71,39.6 -49.39,71.53 -72.81,83.88 -17.88,9.36 -18.73,24.69 -2.98,37.04 6.39,4.68 12.78,7.66 14.9,6.39 2.13,-1.28 3.84,0 3.84,2.12 0,5.97 -4.69,5.97 -18.74,0.43 -5.96,-2.13 -11.07,-6.39 -11.07,-9.37 0,-2.98 -1.7,-8.09 -3.83,-11.49 -3.4,-5.11 -9.79,-2.56 -34.49,13.62 -16.6,11.07 -31.08,22.99 -32.35,25.97 -1.28,3.41 0.85,12.35 4.68,19.59l7.24 13.62 35.76 -2.98c54.07,-4.25 57.05,-5.96 72.81,-32.78 15.33,-26.4 37.89,-47.69 45.13,-43 2.55,1.7 -0.43,5.11 -8.09,8.94 -15.33,6.81 -37.47,38.74 -43.85,62.16 -3.41,12.35 -2.98,20.01 1.27,29.8 11.5,27.68 66.85,63.44 98.36,63.44 23.41,0 44.7,-11.49 44.7,-24.26 0,-11.5 10.65,-21.72 26.83,-25.55 6.81,-1.7 15.32,-8.52 20.43,-16.61 7.24,-11.49 8.09,-17.88 5.96,-39.17 -3.4,-30.23 -5.96,-36.19 -30.65,-62.16 -29.81,-31.93 -57.91,-36.62 -94.1,-15.33 -10.64,5.96 -14.05,6.81 -10.64,2.56 2.98,-3.84 13.2,-10.22 22.56,-14.48 18.74,-8.51 19.16,-9.37 23.42,-68.97 2.56,-32.36 2.13,-34.92 -7.24,-41.3 -10.21,-7.24 -23.84,-8.94 -31.5,-3.41l0 0zm-9.8 113.26c-16.18,20.43 -51.09,53.64 -57.48,53.64 -0.85,0 8.52,-10.22 21.72,-22.56 12.77,-11.93 29.38,-30.23 36.19,-40.45 7.24,-10.22 13.62,-17.46 14.9,-16.18 1.28,1.28 -5.53,12.77 -15.33,25.55zm47.69 37.89c-7.24,2.98 -14.9,6.39 -16.6,8.09 -1.71,2.13 -5.11,3.4 -7.67,3.4 -2.55,-0.42 0,-4.25 5.54,-8.51 5.53,-4.69 14.9,-8.52 21.28,-8.09 10.65,0.42 10.65,0.42 -2.55,5.11l0 0zm37.47 20.86c6.81,9.79 12.35,19.59 12.35,22.14 0,2.56 -4.69,-2.55 -10.22,-11.07 -5.11,-8.94 -13.2,-20.01 -17.89,-25.12 -4.25,-5.53 -5.53,-8.09 -2.55,-6.39 2.98,2.13 11.49,11.07 18.31,20.44l0 0zm-76.22 4.26c-2.98,2.98 -5.1,3.41 -5.1,0.85 0,-5.96 5.1,-11.07 8.09,-8.09 0.85,1.28 -0.43,4.69 -2.98,7.24l-0.01 0zm-21.71 30.23c-4.68,8.09 -8.94,17.03 -8.94,20.01 0,2.98 8.09,13.2 18.31,22.57 14.47,14.05 15.32,16.18 5.11,9.79 -17.04,-10.22 -27.68,-22.99 -27.68,-33.21 0,-9.79 16.6,-39.17 20.01,-35.77 1.28,1.28 -1.7,8.52 -6.81,16.61z"/>
  <path class="fil0" d="M794.11 1092.53c-49.81,16.18 -74.93,19.58 -98.35,12.77 -15.33,-4.68 -22.14,-5.11 -29.81,-0.85 -12.77,6.39 -15.75,25.55 -5.53,37.04 3.83,4.69 5.11,8.09 2.56,8.09 -2.56,0 -7.67,-5.53 -11.5,-12.35 -4.68,-9.79 -5.11,-15.32 -2.13,-24.26 2.56,-6.39 3.83,-11.93 3.41,-12.35 -3.41,-2.98 -48.54,-10.65 -63.02,-10.65 -14.9,0 -16.6,1.28 -21.29,14.91 -2.55,8.09 -3.83,16.6 -2.13,19.16 1.28,2.12 17.89,15.75 36.62,30.22l34.06 25.98 19.59 -6.82c26.4,-8.94 69.4,-9.36 69.4,-0.42 0,5.11 -1.7,5.53 -7.66,1.7 -11.07,-6.81 -50.25,-1.28 -71.11,10.22 -10.64,5.96 -20.01,15.75 -25.12,25.97 -7.24,14.9 -7.66,20.01 -3.83,43.01 11.49,67.69 48.96,102.18 86.43,80.04 11.5,-6.39 12.77,-6.39 22.99,0 18.31,12.35 38.32,9.37 55.35,-7.66 25.12,-24.7 29.81,-37.9 30.23,-80.47l0 -37.47 -16.18 -14.05c-8.94,-7.67 -24.69,-16.18 -34.91,-18.74 -10.65,-2.55 -19.16,-5.96 -19.16,-7.23 0,-3.84 29.38,2.12 38.32,7.66 9.36,5.96 18.73,0.43 54.92,-33.21 27.25,-25.12 31.08,-34.91 19.16,-51.95 -8.09,-11.92 -20.43,-11.49 -61.31,1.71l0 0zm-12.77 57.05c0,2.13 -7.24,4.26 -15.75,3.83 -14.48,-0.42 -14.91,-0.85 -5.54,-3.83 15.33,-4.68 21.29,-4.68 21.29,0zm-47.69 7.24c-8.94,0.85 -23.41,0.85 -31.93,0 -8.94,-0.85 -1.7,-1.7 15.75,-1.7 17.46,0 24.7,0.85 16.18,1.7l0 0zm32.79 55.78c8.09,5.96 8.09,5.96 -2.13,2.55 -18.74,-5.96 -77.49,-4.26 -91.54,2.56 -12.35,6.38 -12.78,7.66 -11.93,34.06 0.86,29.38 -4.25,27.67 -9.36,-2.56 -3.83,-25.12 8.51,-38.74 40.45,-43.43 30.23,-4.25 63.86,-1.27 74.51,6.82zm8.51 54.92c-1.27,10.22 -4.26,18.31 -6.38,18.31 -1.71,0 -1.71,-7.24 0.42,-16.18 2.13,-8.52 3.83,-22.57 4.26,-30.66 0.85,-14.05 0.85,-14.47 2.55,-2.55 1.28,7.23 0.86,20.86 -0.85,31.08l0 0z"/>
  <path class="fil0" d="M206.12 1153.41c-18.31,18.31 -17.45,43.01 2.13,62.59 11.92,11.92 17.46,14.48 33.64,14.48 43,0 60.03,-45.56 28.52,-77.07 -9.79,-10.22 -15.75,-12.35 -31.93,-12.35 -16.18,0 -22.14,2.13 -32.36,12.35l0 0z"/>
  <path class="fil0" d="M1173.05 1155.12c-36.19,28.1 -22.99,83.87 20.01,83.87 45.56,0 67.27,-50.24 34.91,-80.47 -11.07,-10.22 -43.85,-12.35 -54.92,-3.4l0 0z"/>
  <path class="fil0" d="M695.33 1347.57c-13.2,7.23 -24.69,26.39 -24.69,40.44 0,14.06 11.07,31.94 23.42,37.47 34.06,15.76 70.25,-3.4 70.25,-37.04 0,-34.49 -39.17,-57.91 -68.98,-40.88l0 0.01z"/>
  <path class="fil0" d="M945.32 469.52c220.23,206.76 80.9,575.33 -220.24,575.33 -310.14,0 -458.46,-346.09 -238.22,-561.83 134.84,-139.34 319.12,-143.83 458.46,-13.48l0 -0.02z"/>
  <path class="fil0" d="M603.69 713.61c8.99,130.35 76.4,143.83 193.26,44.95 49.45,-40.45 49.45,-58.43 -17.98,-107.88 -125.85,-89.9 -184.28,-67.42 -175.28,62.93z"/>
  <path class="fil0" d="M591.13 714.02c9.99,144.74 84.84,159.7 214.6,49.91 54.91,-44.92 54.91,-64.88 -19.96,-119.79 -139.75,-99.82 -204.62,-74.86 -194.64,69.88z"/>
 </g>
</svg>
