<?xml version="1.0" standalone="no"?>
<!DOCTYPE svg PUBLIC "-//W3C//DTD SVG 20010904//EN"
 "http://www.w3.org/TR/2001/REC-SVG-20010904/DTD/svg10.dtd">
<svg version="1.0" xmlns="http://www.w3.org/2000/svg"
 width="500.000000pt" height="500.000000pt" viewBox="0 0 500.000000 500.000000"
 preserveAspectRatio="xMidYMid meet">

<g transform="translate(0.000000,500.000000) scale(0.100000,-0.100000)"
fill="#000000" stroke="none">
<path d="M2441 4866 c-31 -17 -50 -53 -51 -94 0 -51 54 -102 109 -102 56 0
100 39 108 97 5 39 2 46 -30 78 -28 28 -43 35 -73 35 -22 -1 -50 -7 -63 -14z"/>
<path d="M2333 4624 c-49 -53 -63 -93 -63 -183 0 -77 25 -122 80 -144 82 -34
85 -36 68 -36 -10 -1 -36 6 -58 15 -37 15 -42 15 -68 -2 -15 -10 -53 -42 -84
-72 -60 -57 -70 -82 -44 -117 18 -25 59 -23 169 9 96 29 154 32 221 14 40 -11
47 -10 66 7 26 23 26 59 0 85 -11 11 -16 20 -12 20 24 0 43 -40 40 -81 l-3
-43 83 -15 c92 -16 105 -11 116 39 8 32 6 35 -84 104 -60 47 -79 56 -100 51
-14 -3 -62 -9 -107 -12 -75 -5 -83 -4 -83 12 0 14 3 15 15 5 25 -21 136 -6
184 24 51 33 61 52 61 119 0 60 -22 134 -56 189 -32 50 -91 70 -134 45 -35
-21 -54 -21 -70 -2 -7 9 -29 15 -53 15 -35 0 -46 -6 -84 -46z m41 -136 c-4
-29 -11 -60 -16 -68 -9 -15 -6 23 8 93 10 47 15 29 8 -25z m275 -59 c1 -46
-24 -69 -81 -75 l-43 -5 50 18 50 18 4 60 c2 43 5 54 11 40 5 -11 9 -36 9 -56z
m-219 -72 c10 -4 8 -6 -6 -6 -12 -1 -32 8 -45 19 l-24 21 30 -14 c17 -8 37
-17 45 -20z m67 -13 c-3 -3 -12 -4 -19 -1 -8 3 -5 6 6 6 11 1 17 -2 13 -5z
m78 -114 c13 -6 -17 -9 -85 -9 -58 -1 -115 -4 -127 -7 -13 -4 -23 -2 -23 4 0
6 12 13 28 15 50 8 187 6 207 -3z"/>
<path d="M1330 4418 c-13 -7 -35 -29 -48 -48 -31 -46 -25 -94 18 -132 97 -88
240 55 153 152 -32 36 -85 47 -123 28z"/>
<path d="M3585 4391 c-31 -13 -55 -45 -61 -83 -11 -67 44 -128 117 -128 39 0
99 56 99 93 0 88 -80 148 -155 118z"/>
<path d="M1545 4326 c-36 -15 -49 -31 -62 -71 -7 -21 -19 -33 -44 -41 -52 -18
-74 -55 -72 -121 4 -73 24 -113 90 -173 49 -45 59 -50 101 -50 29 0 63 8 87
21 31 17 37 18 26 5 -8 -10 -29 -23 -47 -31 -29 -12 -33 -18 -39 -67 -3 -29
-5 -80 -3 -112 2 -50 7 -62 29 -78 42 -32 69 -11 128 101 53 102 105 165 159
193 29 15 33 22 30 50 -2 26 -11 37 -38 51 l-35 19 34 -6 c19 -3 35 -7 36 -9
2 -1 9 -14 16 -29 l14 -28 68 46 c38 25 71 52 74 60 9 23 -24 84 -44 84 -10 0
-58 -7 -108 -15 -49 -8 -92 -15 -95 -15 -4 0 -12 -15 -18 -34 -18 -49 -99
-137 -119 -129 -11 4 -8 9 13 18 33 14 85 83 103 134 25 76 -21 147 -134 201
-76 36 -112 43 -150 26z m158 -121 c20 -14 40 -37 43 -50 8 -30 -10 -77 -39
-102 -22 -20 -18 -9 16 40 26 38 16 69 -35 106 -50 37 -38 42 15 6z m-161
-238 c7 -2 10 -7 6 -11 -7 -9 -88 90 -88 107 0 7 16 -11 35 -40 19 -28 40 -53
47 -56z m142 48 c-4 -8 -8 -15 -10 -15 -2 0 -4 7 -4 15 0 8 4 15 10 15 5 0 7
-7 4 -15z m84 -82 c-36 -38 -71 -78 -77 -90 -7 -13 -16 -23 -22 -23 -6 0 -5 9
2 23 16 30 140 157 153 157 6 0 -19 -30 -56 -67z m-143 37 c-10 -11 -30 -20
-44 -20 -23 0 -22 3 14 19 51 25 51 25 30 1z"/>
<path d="M3315 4302 c-22 -10 -65 -42 -95 -69 -54 -50 -55 -52 -54 -106 0 -34
6 -64 17 -80 21 -32 22 -43 2 -27 -8 7 -19 29 -25 50 -10 36 -13 38 -68 48
-128 24 -162 25 -183 6 -19 -17 -25 -59 -11 -80 4 -6 45 -36 92 -67 96 -62
138 -103 169 -164 31 -61 83 -70 111 -18 20 37 -2 76 -92 168 -44 44 -76 82
-73 86 10 10 142 -133 165 -179 28 -55 20 -98 -21 -113 -35 -14 -35 -16 -8
-70 48 -95 77 -115 130 -87 21 12 24 51 13 172 -6 57 -10 68 -31 77 -36 16
-123 101 -123 120 1 10 6 7 15 -10 16 -30 87 -89 128 -107 15 -7 41 -12 56
-12 63 0 166 113 192 210 17 63 -6 111 -62 133 -33 13 -39 20 -39 44 0 19 -10
39 -30 58 -39 37 -116 45 -175 17z m55 -81 c0 -5 -9 -12 -19 -16 -11 -3 -36
-17 -56 -31 -20 -13 -33 -19 -30 -13 6 10 94 69 102 69 2 0 3 -4 3 -9z m-106
-136 l16 -40 -20 24 c-11 13 -20 32 -20 44 0 26 4 21 24 -28z m46 -75 c0 -5
-2 -10 -4 -10 -3 0 -8 5 -11 10 -3 6 -1 10 4 10 6 0 11 -4 11 -10z m184 -35
c-16 -25 -48 -48 -69 -50 -17 -2 -59 22 -79 44 -25 28 -17 27 24 -4 45 -33 63
-32 102 9 37 39 48 40 22 1z"/>
<path d="M3390 3550 c-11 -11 -20 -24 -20 -29 0 -5 9 -53 20 -106 23 -111 25
-185 8 -250 -9 -33 -9 -51 -2 -63 13 -21 70 -28 90 -11 8 6 14 7 14 1 0 -19
-54 -34 -85 -22 -15 6 -29 9 -30 8 -1 -2 -11 -39 -23 -83 l-22 -80 26 -22 c14
-13 34 -23 44 -23 28 0 164 157 154 178 -4 10 -9 56 -12 105 -4 79 -2 87 14
87 14 0 15 -3 6 -12 -20 -20 -15 -133 8 -178 36 -71 95 -91 202 -70 94 18 136
43 159 95 18 41 19 47 4 74 -20 40 -19 54 6 77 35 31 21 89 -34 141 -51 48
-96 63 -189 63 -66 0 -69 -1 -107 -39 -21 -21 -42 -53 -46 -71 -4 -17 -9 -29
-12 -26 -3 3 2 26 12 51 l17 46 -28 42 c-84 128 -131 160 -174 117z m139 -278
c-1 -53 -4 -108 -8 -122 -5 -14 -8 31 -7 102 1 69 4 124 9 121 4 -2 7 -48 6
-101z m137 31 c-8 -15 -15 -22 -16 -15 0 17 20 55 27 49 2 -3 -2 -18 -11 -34z
m167 18 c7 -7 -3 -7 -29 0 -57 15 -64 20 -20 14 22 -2 44 -9 49 -14z m-183
-119 c0 -15 -2 -15 -10 -2 -13 20 -13 33 0 25 6 -3 10 -14 10 -23z m24 -124
c6 -4 36 -8 66 -9 50 0 52 -2 27 -11 -38 -14 -93 -2 -112 25 -8 12 -15 37 -14
57 1 35 1 34 11 -10 6 -25 15 -48 22 -52z"/>
<path d="M2125 3548 c-3 -7 -4 -134 -2 -283 l2 -270 364 -3 c266 -2 367 1 378
9 11 10 14 59 12 273 0 161 -5 266 -11 274 -8 9 -95 12 -375 12 -282 0 -365
-3 -368 -12z m720 -34 c0 -15 -7 -19 -40 -19 -29 0 -41 4 -43 17 -2 11 5 18
20 21 42 7 63 1 63 -19z m-658 0 c-3 -3 -12 -4 -19 -1 -8 3 -5 6 6 6 11 1 17
-2 13 -5z m80 0 c-3 -3 -12 -4 -19 -1 -8 3 -5 6 6 6 11 1 17 -2 13 -5z m1
-161 c-10 -2 -28 -2 -40 0 -13 2 -5 4 17 4 22 1 32 -1 23 -4z m69 1 c-3 -3
-12 -4 -19 -1 -8 3 -5 6 6 6 11 1 17 -2 13 -5z m-70 -30 c-3 -3 -12 -4 -19 -1
-8 3 -5 6 6 6 11 1 17 -2 13 -5z m66 -1 c-7 -2 -19 -2 -25 0 -7 3 -2 5 12 5
14 0 19 -2 13 -5z m114 0 c-20 -2 -52 -2 -70 0 -17 2 0 4 38 4 39 0 53 -2 32
-4z m101 0 c-10 -2 -28 -2 -40 0 -13 2 -5 4 17 4 22 1 32 -1 23 -4z m105 0
c-7 -2 -21 -2 -30 0 -10 3 -4 5 12 5 17 0 24 -2 18 -5z m-264 -108 c13 -42 20
-82 17 -90 -7 -19 -30 -19 -45 -1 -10 12 -8 19 7 34 13 13 18 28 15 46 -8 39
-18 40 -57 6 l-35 -31 26 -56 c28 -61 24 -85 -16 -91 -27 -4 -28 22 -1 41 l20
14 -20 47 c-19 46 -26 75 -15 64 9 -8 75 54 75 69 0 8 -5 11 -12 7 -7 -4 -8
-3 -4 4 14 24 24 11 45 -63z m328 -7 c49 -46 18 -128 -49 -128 -69 0 -102 77
-53 125 30 31 71 32 102 3z m-150 -85 c-3 -10 -5 -2 -5 17 0 19 2 27 5 18 2
-10 2 -26 0 -35z"/>
<path d="M2645 3153 c2 -29 17 -32 43 -10 11 9 11 13 -4 24 -28 20 -41 15 -39
-14z"/>
<path d="M1490 3444 c-42 -50 -64 -84 -63 -98 17 -143 15 -196 -8 -196 -6 0
-5 8 2 22 15 27 5 137 -15 175 -30 58 -50 68 -145 68 -72 0 -95 -4 -141 -26
-45 -21 -59 -34 -74 -68 -19 -40 -19 -43 -2 -78 17 -35 17 -37 -3 -64 -12 -16
-21 -44 -21 -64 0 -30 8 -44 48 -84 51 -50 67 -57 181 -67 63 -6 68 -5 100 22
19 16 45 51 57 79 16 34 22 41 17 20 -3 -16 -12 -42 -21 -56 -14 -24 -13 -29
9 -61 91 -132 126 -161 168 -139 32 17 34 48 12 160 -25 124 -26 163 -5 225
26 76 -10 122 -70 90 -14 -7 -26 -8 -26 -3 0 20 47 32 80 21 35 -13 31 -19 60
83 l20 70 -25 23 c-44 38 -64 29 -135 -54z m-167 -122 c9 -10 19 -41 22 -68
l5 -49 -14 53 c-7 29 -16 55 -19 58 -3 3 -27 9 -54 14 l-48 8 46 1 c33 1 51
-4 62 -17z m148 -187 c-6 -105 -8 -123 -15 -91 -11 49 5 241 19 224 1 -2 -1
-61 -4 -133z m-124 33 c-3 -8 -6 -5 -6 6 -1 11 2 17 5 13 3 -3 4 -12 1 -19z
m-22 -94 c-23 -36 -28 -25 -7 18 9 19 18 29 20 21 2 -8 -4 -25 -13 -39z m-85
-14 l35 -8 -35 0 c-19 -1 -48 5 -65 14 l-30 14 30 -6 c17 -4 46 -10 65 -14z"/>
<path d="M852 3295 c-54 -46 -48 -139 11 -175 69 -42 134 -13 160 72 9 28 -12
86 -40 108 -36 28 -94 27 -131 -5z"/>
<path d="M4021 3283 c-34 -17 -61 -62 -61 -103 0 -67 73 -121 136 -100 63 21
90 86 64 154 -19 50 -87 74 -139 49z"/>
<path d="M1631 2783 c-20 -17 -21 -24 -14 -121 l6 -102 61 -44 c63 -45 105
-99 86 -111 -5 -3 -10 2 -10 11 0 29 -83 100 -139 119 -47 15 -52 15 -86 -1
-68 -32 -155 -160 -155 -227 0 -40 29 -97 49 -97 29 0 52 -24 60 -60 9 -46 59
-80 115 -80 71 0 110 18 174 78 61 56 62 58 62 110 0 29 -7 67 -16 83 -8 17
-13 33 -11 35 5 6 37 -59 37 -75 0 -17 34 -27 134 -40 89 -12 89 -12 114 12
42 42 26 69 -86 141 -110 72 -144 105 -167 159 -20 49 -55 66 -89 44 -16 -11
-26 -28 -29 -49 -4 -32 -4 -32 -5 5 -2 33 2 40 32 58 l34 20 -35 62 c-19 34
-39 68 -45 75 -15 17 -52 15 -77 -5z m240 -402 c16 -12 29 -26 29 -32 0 -18
-81 52 -126 110 -62 80 -54 85 12 8 30 -35 69 -74 85 -86z m-240 62 c15 -9 31
-22 33 -29 3 -7 -11 -2 -31 12 -47 31 -55 30 -97 -10 -43 -40 -49 -27 -7 15
34 33 60 36 102 12z m78 -62 c8 -5 9 -11 3 -15 -5 -3 -15 1 -22 9 -14 16 -3
20 19 6z m49 -96 c-2 -12 -7 -7 -15 16 -12 30 -11 32 3 17 9 -8 14 -23 12 -33z
m-21 -63 c-9 -10 -36 -29 -59 -42 -53 -28 -45 -18 19 25 57 39 62 41 40 17z"/>
<path d="M3334 2792 c-6 -4 -33 -47 -60 -97 -51 -93 -116 -168 -171 -197 -42
-22 -44 -58 -7 -87 15 -11 30 -18 35 -15 5 3 9 0 9 -5 0 -14 -11 -14 -44 -1
-14 5 -26 15 -26 22 0 7 -4 19 -9 27 -8 12 -23 6 -81 -32 -39 -26 -73 -54 -76
-61 -3 -8 2 -29 11 -46 l17 -32 84 7 c127 10 134 14 171 77 36 62 89 112 106
101 6 -4 -1 -12 -19 -21 -36 -16 -88 -91 -103 -146 -8 -29 -7 -47 3 -70 27
-65 157 -149 231 -149 55 0 105 27 105 57 0 27 25 51 63 60 16 4 36 20 48 39
17 27 19 42 14 92 -8 71 -14 85 -72 146 -70 75 -136 86 -221 36 -25 -14 -33
-16 -25 -6 7 9 31 24 53 34 44 20 45 22 55 162 6 76 5 82 -17 97 -24 17 -56
21 -74 8z m-23 -266 c-38 -48 -120 -126 -135 -126 -2 0 20 24 51 53 30 28 69
71 85 95 17 24 32 41 35 38 3 -3 -13 -30 -36 -60z m112 -89 c-17 -7 -35 -15
-39 -19 -4 -5 -12 -8 -18 -8 -6 1 0 10 13 20 13 11 35 20 50 19 25 -1 25 -1
-6 -12z m88 -49 c16 -23 29 -46 29 -52 0 -6 -11 6 -24 26 -12 21 -31 47 -42
59 -10 13 -13 19 -6 15 7 -5 27 -26 43 -48z m-179 -10 c-7 -7 -12 -8 -12 -2 0
14 12 26 19 19 2 -3 -1 -11 -7 -17z m-51 -71 c-11 -19 -21 -40 -21 -47 0 -7
19 -31 43 -53 34 -33 36 -38 12 -23 -40 24 -65 54 -65 78 0 23 39 92 47 84 3
-3 -4 -20 -16 -39z"/>
<path d="M2680 2314 c-117 -38 -176 -46 -231 -30 -36 11 -52 12 -70 2 -30 -15
-37 -60 -13 -87 9 -11 12 -19 6 -19 -6 0 -18 13 -27 29 -11 23 -12 36 -5 57 6
15 9 28 8 29 -8 7 -114 25 -148 25 -35 0 -39 -3 -50 -35 -6 -19 -9 -39 -5 -45
3 -5 42 -37 86 -71 l80 -61 46 16 c62 21 163 22 163 1 0 -12 -4 -13 -18 -4
-26 16 -118 3 -167 -24 -25 -14 -47 -37 -59 -61 -17 -35 -18 -47 -9 -101 27
-159 115 -240 203 -188 27 15 30 15 54 0 43 -29 90 -22 130 18 59 58 70 89 71
189 l0 88 -38 33 c-21 18 -58 38 -82 44 -25 6 -45 14 -45 17 0 9 69 -5 90 -18
22 -14 44 -1 129 78 64 59 73 82 45 122 -19 28 -48 27 -144 -4z m-30 -134 c0
-5 -17 -10 -37 -9 -34 1 -35 2 -13 9 36 11 50 11 50 0z m-112 -17 c-21 -2 -55
-2 -75 0 -21 2 -4 4 37 4 41 0 58 -2 38 -4z m77 -131 c19 -14 19 -14 -5 -6
-44 14 -182 10 -215 -6 -29 -15 -30 -18 -28 -80 2 -69 -10 -65 -22 6 -9 59 20
91 95 102 71 10 150 3 175 -16z m20 -129 c-3 -24 -10 -43 -15 -43 -4 0 -4 17
1 38 5 20 9 53 10 72 2 33 2 34 6 6 3 -17 2 -49 -2 -73z"/>
<path d="M1299 2171 c-43 -43 -41 -101 5 -147 28 -28 41 -34 79 -34 101 0 141
107 67 181 -23 24 -37 29 -75 29 -38 0 -52 -5 -76 -29z"/>
<path d="M3570 2167 c-85 -66 -54 -197 47 -197 107 0 158 118 82 189 -26 24
-103 29 -129 8z"/>
<path d="M2448 1715 c-31 -17 -58 -62 -58 -95 0 -33 26 -75 55 -88 80 -37 165
8 165 87 0 81 -92 136 -162 96z"/>
<path d="M1679 1303 c-1 -86 -1 -169 0 -265 l1 -48 40 0 40 0 0 89 c0 96 8
115 55 127 49 12 61 -7 69 -106 4 -50 4 -95 1 -100 -4 -6 13 -10 39 -10 l46 0
0 98 c0 108 -16 157 -60 179 -33 17 -89 16 -122 -1 l-28 -15 0 70 0 69 -40 0
-40 0 -1 -87z"/>
<path d="M1070 1175 l0 -185 120 0 c134 0 177 12 205 54 23 35 14 94 -19 121
-24 20 -24 20 -5 44 21 25 25 71 9 102 -21 38 -62 49 -190 49 l-120 0 0 -185z
m204 115 c18 -7 26 -17 26 -34 0 -33 -26 -46 -94 -46 l-56 0 0 38 c0 21 3 42
7 45 10 10 88 8 117 -3z m24 -156 c24 -17 29 -43 10 -62 -7 -7 -42 -12 -85
-12 l-73 0 0 38 c0 21 3 42 7 45 13 14 118 7 141 -9z"/>
<path d="M2040 1185 c0 -105 14 -152 51 -179 27 -19 100 -21 132 -5 16 9 22 9
25 0 2 -6 21 -11 43 -11 l39 0 0 145 0 145 -39 0 -39 0 -4 -96 c-2 -81 -6 -98
-22 -110 -25 -18 -70 -18 -84 -1 -6 7 -13 56 -14 108 l-3 94 -42 3 -43 3 0
-96z"/>
<path d="M2410 1135 l0 -145 40 0 40 0 0 81 c0 100 17 138 63 139 9 0 26 -9
37 -20 17 -17 20 -33 20 -110 l0 -90 40 0 40 0 0 84 c0 69 4 88 21 110 12 15
30 26 44 26 41 0 55 -34 55 -132 l0 -88 40 0 40 0 0 105 c0 59 -5 115 -12 130
-25 54 -115 72 -176 35 l-33 -20 -26 20 c-30 24 -86 26 -125 6 -24 -13 -28
-13 -28 0 0 10 -12 14 -40 14 l-40 0 0 -145z"/>
<path d="M3020 1273 c-8 -3 -25 -10 -38 -14 -22 -8 -22 -10 -7 -39 13 -25 19
-29 35 -20 10 5 39 10 64 10 35 0 48 -5 56 -19 5 -11 10 -22 10 -24 0 -2 -32
-7 -72 -9 -62 -5 -75 -9 -95 -32 -66 -77 23 -168 129 -132 21 8 38 10 38 5 0
-5 18 -9 40 -9 l40 0 0 99 c0 117 -8 144 -52 171 -32 19 -112 26 -148 13z
m120 -183 c0 -45 -91 -65 -107 -23 -9 23 24 43 69 43 31 0 38 -4 38 -20z"/>
<path d="M3300 1135 l0 -145 40 0 40 0 0 85 c0 78 2 88 25 110 27 28 52 31 81
11 16 -12 20 -29 22 -110 l4 -96 40 0 40 0 -4 116 -3 116 -33 29 c-37 34 -94
39 -142 14 -27 -14 -30 -14 -30 0 0 11 -11 15 -40 15 l-40 0 0 -145z"/>
<path d="M3718 1259 c-93 -49 -97 -193 -6 -249 47 -29 134 -28 179 3 94 63 88
199 -12 249 -45 23 -115 22 -161 -3z m132 -69 c27 -27 27 -90 0 -115 -47 -43
-120 -7 -120 59 0 66 75 101 120 56z"/>
<path d="M1460 1140 l0 -30 75 0 75 0 0 30 0 30 -75 0 -75 0 0 -30z"/>
</g>
</svg>
