<?xml version="1.0" standalone="no"?>
<!DOCTYPE svg PUBLIC "-//W3C//DTD SVG 20010904//EN"
 "http://www.w3.org/TR/2001/REC-SVG-20010904/DTD/svg10.dtd">
<svg version="1.0" xmlns="http://www.w3.org/2000/svg"
 width="500.000000pt" height="500.000000pt" viewBox="0 0 500.000000 500.000000"
 preserveAspectRatio="xMidYMid meet">

<g transform="translate(0.000000,500.000000) scale(0.100000,-0.100000)"
fill="#000000" stroke="none">
<path d="M2127 3546 c-9 -23 -8 -530 1 -544 7 -9 88 -12 373 -10 l364 3 0 280
0 280 -366 3 c-313 2 -368 0 -372 -12z m591 -13 c-10 -2 -28 -2 -40 0 -13 2
-5 4 17 4 22 1 32 -1 23 -4z m131 -2 c28 -18 4 -41 -44 -41 -37 0 -45 3 -45
18 0 10 3 22 7 25 9 10 66 8 82 -2z m-202 -23 c-3 -8 -6 -5 -6 6 -1 11 2 17 5
13 3 -3 4 -12 1 -19z m-399 5 c-15 -2 -42 -2 -60 0 -18 2 -6 4 27 4 33 0 48
-2 33 -4z m194 -160 c-51 -2 -132 -2 -180 0 -48 1 -6 3 93 3 99 0 138 -2 87
-3z m101 -30 c-67 -2 -179 -2 -250 0 -70 1 -15 3 122 3 138 0 195 -2 128 -3z
m-153 -107 c12 -41 20 -81 17 -90 -8 -20 -31 -21 -46 -2 -10 12 -8 19 8 35 19
19 20 24 8 53 l-13 31 -38 -33 c-30 -27 -39 -31 -47 -19 -5 8 -9 19 -9 24 0 6
4 4 9 -4 8 -12 16 -10 45 13 51 38 49 68 -1 31 l-38 -26 35 30 c19 17 37 31
40 31 4 0 17 -33 30 -74z m177 -98 c-2 -29 -3 -6 -3 52 0 58 1 81 3 53 2 -29
2 -77 0 -105z m150 90 c50 -47 17 -128 -52 -128 -46 0 -75 29 -75 74 0 65 79
99 127 54z m-379 -151 c-2 -16 -11 -23 -30 -25 -34 -4 -38 20 -8 41 19 13 19
16 5 50 -23 56 -17 58 11 4 14 -27 24 -58 22 -70z"/>
<path d="M2640 3156 c0 -33 12 -39 40 -19 22 15 22 17 5 30 -28 20 -45 16 -45
-11z"/>
<path d="M1680 1185 l0 -195 40 0 40 0 0 90 c0 102 15 130 69 130 47 0 61 -30
61 -132 l0 -88 41 0 41 0 -3 108 c-5 128 -17 155 -80 174 -35 10 -49 9 -85 -4
l-44 -16 0 64 0 64 -40 0 -40 0 0 -195z"/>
<path d="M1070 1175 l0 -185 108 0 c171 0 227 25 227 100 0 34 -6 47 -32 70
-29 27 -30 28 -12 43 45 39 31 114 -26 141 -24 12 -64 16 -149 16 l-116 0 0
-185z m221 104 c18 -18 19 -23 6 -42 -12 -18 -26 -22 -81 -25 l-66 -3 0 46 0
45 60 0 c47 0 64 -4 81 -21z m10 -139 c12 -7 19 -21 19 -41 0 -37 -27 -49
-111 -49 l-59 0 0 50 0 50 66 0 c36 0 74 -5 85 -10z"/>
<path d="M2523 1266 c-18 -8 -33 -11 -33 -6 0 6 -18 10 -40 10 l-40 0 0 -140
0 -140 40 0 40 0 0 90 c0 99 15 130 63 130 45 0 57 -28 57 -128 l0 -92 40 0
40 0 0 90 c0 99 15 130 64 130 46 0 56 -23 56 -126 l0 -94 41 0 41 0 -4 115
c-3 108 -5 116 -29 141 -37 37 -96 43 -150 15 -38 -20 -43 -21 -59 -6 -26 23
-89 28 -127 11z"/>
<path d="M3005 1265 c-22 -8 -41 -15 -43 -15 -1 0 4 -13 12 -29 l15 -29 43 16
c38 13 47 13 73 1 16 -8 31 -22 33 -32 3 -14 -4 -17 -40 -17 -129 0 -189 -71
-119 -141 24 -23 38 -29 73 -29 24 0 53 7 64 15 25 19 34 19 34 0 0 -10 11
-15 35 -15 l35 0 0 98 c0 118 -17 161 -70 179 -47 16 -97 15 -145 -2z m135
-174 c0 -39 -71 -66 -98 -39 -16 16 -15 45 1 51 6 3 31 6 55 6 35 1 42 -2 42
-18z"/>
<path d="M3413 1265 c-18 -8 -33 -10 -33 -5 0 6 -18 10 -40 10 l-40 0 0 -140
0 -140 40 0 40 0 0 90 c0 101 15 130 68 130 50 0 62 -25 62 -128 l0 -92 40 0
40 0 0 95 c0 112 -15 157 -59 179 -37 20 -76 20 -118 1z"/>
<path d="M3735 1266 c-53 -24 -78 -60 -83 -120 -3 -44 0 -62 17 -89 51 -83
197 -90 258 -13 55 69 29 180 -49 216 -50 23 -101 25 -143 6z m124 -82 c34
-43 21 -102 -26 -123 -34 -16 -47 -14 -77 10 -31 24 -36 81 -10 117 23 33 86
31 113 -4z"/>
<path d="M2042 1168 c2 -57 10 -113 17 -125 25 -48 124 -70 167 -38 25 19 34
19 34 0 0 -10 11 -15 35 -15 l35 0 0 140 0 140 -40 0 -40 0 0 -83 c0 -100 -14
-127 -65 -127 -51 0 -65 27 -65 127 l0 83 -41 0 -42 0 5 -102z"/>
<path d="M1460 1140 l0 -30 75 0 75 0 0 30 0 30 -75 0 -75 0 0 -30z"/>
<path d="M1030 770 c0 -36 -2 -40 -17 -32 -49 26 -93 -35 -74 -100 12 -40 25
-47 89 -46 l42 1 0 108 c0 102 -1 109 -20 109 -17 0 -20 -7 -20 -40z m0 -101
c0 -43 -20 -60 -45 -39 -19 16 -19 54 0 74 25 25 45 9 45 -35z"/>
<path d="M2090 770 c0 -37 -2 -40 -19 -30 -24 12 -66 -1 -75 -25 -11 -29 -6
-80 9 -102 13 -18 25 -22 65 -21 l50 1 0 109 c0 89 -3 108 -15 108 -11 0 -15
-11 -15 -40z m-11 -64 c7 -8 11 -30 9 -48 -2 -28 -7 -33 -28 -33 -21 0 -26 5
-28 33 -3 31 11 62 28 62 4 0 13 -6 19 -14z"/>
<path d="M806 791 c-7 -10 -76 -191 -76 -197 0 -14 40 0 45 16 5 16 15 20 50
20 34 0 44 -4 48 -20 3 -12 14 -20 26 -20 22 0 18 13 -48 183 -10 26 -34 36
-45 18z m38 -98 c6 -20 4 -23 -18 -23 -29 0 -31 6 -15 47 11 30 19 24 33 -24z"/>
<path d="M1450 765 c0 -7 -8 -18 -17 -24 -17 -9 -17 -11 -1 -23 12 -9 18 -30
20 -68 3 -52 5 -55 31 -58 29 -4 39 21 12 32 -22 8 -20 82 3 96 16 10 16 10 0
20 -10 6 -18 18 -18 25 0 8 -7 15 -15 15 -8 0 -15 -7 -15 -15z"/>
<path d="M2490 761 c0 -11 -6 -22 -12 -25 -10 -5 -10 -7 0 -12 7 -3 12 -26 12
-58 0 -29 5 -57 12 -64 17 -17 58 -15 58 3 0 8 -7 15 -15 15 -19 0 -22 95 -2
104 10 5 10 7 0 12 -7 3 -13 14 -13 25 0 12 -7 19 -20 19 -13 0 -20 -7 -20
-19z"/>
<path d="M4040 761 c0 -11 -6 -22 -12 -25 -10 -5 -10 -7 0 -12 7 -3 12 -24 12
-50 0 -25 5 -54 10 -65 13 -23 60 -26 60 -4 0 8 -7 15 -15 15 -11 0 -15 12
-15 50 0 38 4 50 15 50 8 0 15 5 15 10 0 6 -7 10 -15 10 -8 0 -15 9 -15 20 0
13 -7 20 -20 20 -13 0 -20 -7 -20 -19z"/>
<path d="M1143 740 c-45 -18 -58 -95 -23 -130 45 -45 120 -11 120 54 0 57 -49
95 -97 76z m46 -34 c7 -8 11 -30 9 -48 -2 -28 -7 -33 -28 -33 -21 0 -26 5 -28
33 -3 31 11 62 28 62 4 0 13 -6 19 -14z"/>
<path d="M1332 741 c-7 -4 -24 -6 -38 -3 l-24 4 0 -106 c0 -99 1 -106 20 -106
16 0 20 7 20 35 0 32 2 34 28 29 38 -7 62 14 69 63 5 35 2 45 -20 67 -28 28
-35 30 -55 17z m26 -33 c14 -14 16 -57 3 -76 -5 -8 -17 -12 -27 -10 -14 2 -20
13 -22 42 -4 48 19 71 46 44z"/>
<path d="M1568 739 c-32 -12 -46 -39 -20 -39 10 0 23 5 29 11 15 15 43 4 43
-16 0 -9 -9 -15 -26 -15 -38 0 -64 -18 -64 -44 0 -34 18 -44 78 -44 l52 0 0
57 c0 81 -31 111 -92 90z m50 -96 c-4 -22 -48 -31 -48 -10 0 19 10 27 32 27
13 0 18 -6 16 -17z"/>
<path d="M1874 740 c-24 -10 -39 -28 -30 -37 3 -4 17 -1 30 6 26 15 46 8 46
-15 0 -9 -10 -14 -29 -14 -31 0 -61 -22 -61 -45 0 -28 30 -44 80 -43 l50 1 0
62 c0 38 -5 66 -12 73 -21 16 -52 21 -74 12z m44 -97 c-4 -22 -48 -31 -48 -10
0 19 10 27 32 27 13 0 18 -6 16 -17z"/>
<path d="M2191 737 c-32 -16 -39 -37 -13 -37 11 0 22 5 24 12 6 16 38 2 38
-17 0 -10 -10 -15 -29 -15 -41 0 -67 -35 -47 -65 10 -16 25 -20 67 -22 l54 -1
-3 63 c-2 35 -9 68 -15 73 -23 18 -52 22 -76 9z m49 -97 c0 -13 -7 -20 -19
-20 -22 0 -35 15 -26 30 12 19 45 11 45 -10z"/>
<path d="M2386 743 c-3 -3 -19 -6 -36 -5 l-30 1 0 -105 c0 -95 2 -105 18 -102
11 2 18 14 20 34 3 27 6 30 28 26 38 -7 64 23 64 73 0 22 -6 48 -12 57 -15 18
-43 29 -52 21z m28 -59 c8 -32 -9 -64 -34 -64 -17 0 -20 7 -20 44 0 43 11 58
37 49 6 -3 14 -15 17 -29z"/>
<path d="M2625 742 c-23 -5 -45 -21 -45 -33 0 -13 27 -11 50 4 17 10 22 9 30
-3 12 -20 3 -30 -29 -30 -33 0 -51 -16 -51 -46 0 -32 19 -42 76 -42 l50 0 -4
62 c-6 79 -23 99 -77 88z m45 -97 c0 -9 -7 -18 -15 -21 -23 -9 -45 3 -39 21 8
20 54 20 54 0z"/>
<path d="M3070 739 c-33 -13 -40 -26 -40 -76 0 -32 5 -46 22 -57 31 -22 64
-20 90 6 27 27 9 37 -29 17 -22 -12 -27 -11 -39 6 -18 25 -18 50 1 69 16 15
45 12 45 -5 0 -5 9 -9 20 -9 21 0 25 8 12 26 -6 10 -47 35 -54 33 -2 0 -14 -5
-28 -10z"/>
<path d="M3223 740 c-45 -18 -58 -95 -23 -130 45 -45 120 -11 120 54 0 57 -49
95 -97 76z m46 -34 c7 -8 11 -30 9 -48 -2 -28 -7 -33 -28 -33 -21 0 -26 5 -28
33 -3 31 11 62 28 62 4 0 13 -6 19 -14z"/>
<path d="M3426 743 c-3 -3 -22 -6 -41 -5 l-35 1 0 -74 c0 -68 2 -75 20 -75 18
0 20 7 20 59 0 39 4 61 13 64 28 10 37 -6 37 -64 0 -52 2 -59 20 -59 18 0 20
7 20 59 0 58 9 74 38 64 8 -3 12 -25 12 -64 0 -52 2 -59 20 -59 18 0 20 7 20
65 0 57 -3 66 -24 80 -19 13 -29 13 -49 4 -17 -8 -30 -8 -44 0 -11 5 -23 7
-27 4z"/>
<path d="M3661 741 c-7 -5 -22 -6 -32 -4 -18 5 -19 -2 -19 -101 0 -88 3 -106
15 -106 10 0 15 10 15 34 0 34 1 35 34 29 27 -4 36 -1 50 18 19 28 21 89 4
111 -17 21 -49 30 -67 19z m28 -35 c7 -8 11 -30 9 -48 -2 -28 -7 -33 -28 -33
-21 0 -26 5 -28 33 -3 31 11 62 28 62 4 0 13 -6 19 -14z"/>
<path d="M3801 737 c-32 -16 -39 -37 -13 -37 11 0 22 5 24 12 6 16 38 2 38
-17 0 -10 -10 -15 -29 -15 -41 0 -67 -35 -47 -65 10 -16 25 -20 67 -22 l54 -1
-3 63 c-2 35 -9 68 -15 73 -23 18 -52 22 -76 9z m49 -97 c0 -21 -33 -29 -45
-10 -9 15 4 30 26 30 12 0 19 -7 19 -20z"/>
<path d="M3981 741 c-7 -5 -22 -6 -32 -4 -17 5 -19 -1 -19 -71 0 -69 2 -76 20
-76 18 0 20 7 20 56 0 47 3 57 20 61 11 3 20 14 20 24 0 21 -8 23 -29 10z"/>
<path d="M4180 743 c-52 -19 -69 -94 -30 -133 24 -24 68 -26 96 -5 20 15 18
17 -36 19 -24 1 -36 6 -38 19 -3 14 4 17 42 17 41 0 46 2 46 23 0 42 -42 73
-80 60z m38 -35 c19 -19 14 -28 -18 -28 -16 0 -30 4 -30 8 0 9 21 32 30 32 3
0 11 -5 18 -12z"/>
<path d="M2800 736 c0 -2 11 -34 25 -70 30 -80 31 -96 5 -103 -25 -7 -27 -33
-2 -33 31 0 40 14 76 113 35 95 35 98 14 95 -14 -2 -25 -14 -31 -33 -5 -16
-11 -37 -14 -45 -3 -9 -11 5 -19 33 -11 35 -19 47 -34 47 -11 0 -20 -2 -20 -4z"/>
<path d="M1696 589 c-8 -41 -8 -49 2 -49 10 0 32 45 32 65 0 28 -28 15 -34
-16z"/>
</g>
</svg>
