<?xml version="1.0" encoding="UTF-8"?>
<!DOCTYPE svg PUBLIC "-//W3C//DTD SVG 1.1//EN" "http://www.w3.org/Graphics/SVG/1.1/DTD/svg11.dtd">
<!-- Creator: CorelDRAW 2018 (64-Bit) -->
<svg xmlns="http://www.w3.org/2000/svg" xml:space="preserve" width="1995px" height="279px" version="1.1" style="shape-rendering:geometricPrecision; text-rendering:geometricPrecision; image-rendering:optimizeQuality; fill-rule:evenodd; clip-rule:evenodd"
viewBox="0 0 2129.43 297.98"
 xmlns:xlink="http://www.w3.org/1999/xlink">
 <defs>
  <style type="text/css">
   <![CDATA[
    .fil0 {fill:#FEFEFE}
   ]]>
  </style>
 </defs>
 <g id="Layer_x0020_1">
  <metadata id="CorelCorpID_0Corel-Layer"/>
  <path class="fil0" d="M449.05 64.15c-0.73,63.41 -0.73,124.61 0,195.4l0.74 35.39 29.5 0 29.49 0 0 -65.62c0,-70.79 5.9,-84.8 40.55,-93.65 36.14,-8.85 44.98,5.16 50.88,78.16 2.95,36.87 2.95,70.05 0.74,73.74 -2.95,4.42 9.59,7.37 28.76,7.37l33.92 0 0 -72.26c0,-79.63 -11.8,-115.76 -44.25,-131.99 -24.33,-12.53 -65.62,-11.79 -89.95,0.74l-20.65 11.06 0 -51.61 0 -50.88 -29.49 0 -29.5 0 -0.74 64.15 0 0z"/>
  <path class="fil0" d="M0 158.53l0 136.41 88.48 0c98.81,0 130.52,-8.84 151.16,-39.81 16.96,-25.81 10.33,-69.31 -14.01,-89.22 -17.69,-14.75 -17.69,-14.75 -3.68,-32.45 15.48,-18.43 18.43,-52.35 6.63,-75.21 -15.48,-28.02 -45.71,-36.13 -140.1,-36.13l-88.48 0 0 136.41 0 0zm150.42 -84.8c13.27,5.16 19.17,12.54 19.17,25.07 0,24.34 -19.17,33.92 -69.31,33.92l-41.29 0 0 -28.02c0,-15.48 2.21,-30.97 5.16,-33.18 7.37,-7.37 64.89,-5.9 86.27,2.21l0 0zm17.7 115.03c17.7,12.54 21.38,31.71 7.37,45.72 -5.16,5.16 -30.97,8.85 -62.67,8.85l-53.83 0 0 -28.02c0,-15.49 2.21,-30.97 5.16,-33.19 9.59,-10.32 87.01,-5.16 103.97,6.64l0 0z"/>
  <path class="fil0" d="M715.24 151.16c0,77.42 10.32,112.08 37.61,131.98 19.91,14.02 73.73,15.49 97.33,3.69 11.8,-6.63 16.22,-6.63 18.43,0 1.48,4.43 15.49,8.11 31.71,8.11l28.75 0 0 -106.91 0 -106.92 -28.75 0 -28.76 0 -2.95 70.79c-1.47,59.72 -4.42,72.26 -16.22,81.11 -18.43,13.27 -51.61,13.27 -61.94,0.73 -4.42,-5.16 -9.58,-41.29 -10.32,-79.63l-2.21 -69.31 -30.97 -2.21 -31.71 -2.22 0 70.79 0 0z"/>
  <path class="fil0" d="M988.06 188.03l0 106.91 29.5 0 29.49 0 0 -59.72c0,-73.74 12.54,-101.76 46.46,-102.5 6.63,0 19.17,6.64 27.28,14.75 12.53,12.54 14.75,24.34 14.75,81.11l0 66.37 29.49 0 29.5 0 0 -61.94c0,-50.88 2.94,-64.89 15.48,-81.11 8.85,-11.06 22.12,-19.17 32.44,-19.17 30.24,0 40.56,25.07 40.56,97.33l0 64.89 29.49 0 29.5 0 0 -77.43c0,-43.5 -3.69,-84.79 -8.85,-95.85 -18.43,-39.82 -84.8,-53.09 -129.78,-25.81l-24.33 14.75 -19.17 -14.75c-22.12,-17.7 -63.41,-19.17 -92.17,-4.43 -17.7,9.59 -20.65,9.59 -20.65,0 0,-7.37 -8.84,-10.32 -29.49,-10.32l-29.5 0 0 106.92 0 0z"/>
  <path class="fil0" d="M1437.85 86.27c-5.9,2.21 -18.43,7.37 -28.02,10.32 -16.22,5.9 -16.22,7.38 -5.16,28.76 9.59,18.43 14.01,21.38 25.81,14.75 7.37,-3.69 28.76,-7.38 47.19,-7.38 25.81,0 35.39,3.69 41.29,14.01 3.69,8.12 7.38,16.22 7.38,17.7 0,1.48 -23.6,5.16 -53.09,6.64 -45.72,3.68 -55.3,6.63 -70.05,23.59 -48.67,56.78 16.96,123.88 95.12,97.33 15.48,-5.89 28.02,-7.37 28.02,-3.68 0,3.68 13.27,6.63 29.49,6.63l29.5 0 0 -72.99c0,-86.28 -5.9,-106.18 -38.35,-126.09 -23.59,-14.01 -82.58,-19.17 -109.12,-9.59l-0.01 0zm88.49 134.94c0,33.18 -67.1,47.93 -78.9,16.96 -6.63,-16.96 17.7,-31.71 50.88,-31.71 22.86,0 28.02,2.95 28.02,14.75l0 0z"/>
  <path class="fil0" d="M1644.32 188.03l0 106.91 29.49 0 29.49 0 0 -62.67c0,-57.52 1.48,-64.89 18.44,-81.11 19.91,-20.65 38.34,-22.86 59.72,-8.11 11.8,8.84 14.75,21.38 16.22,81.11l2.95 70.78 29.5 0 29.49 0 -2.95 -85.53 -2.21 -85.53 -24.33 -21.39c-27.29,-25.07 -69.31,-28.75 -104.71,-10.32 -19.9,10.32 -22.12,10.32 -22.12,0 0,-8.11 -8.11,-11.06 -29.49,-11.06l-29.49 0 0 106.92z"/>
  <path class="fil0" d="M1952.53 96.59c-68.57,36.13 -71.52,142.31 -4.42,183.61 34.65,21.38 98.8,20.64 131.98,-2.22 69.32,-46.45 64.89,-146.73 -8.84,-183.6 -33.19,-16.96 -84.8,-16.22 -118.72,2.21zm97.33 50.88c19.91,19.91 19.91,66.36 0,84.8 -34.65,31.7 -88.48,5.16 -88.48,-43.51 0,-48.66 55.3,-74.47 88.48,-41.29l0 0z"/>
  <polygon class="fil0" points="287.57,184.34 287.57,206.46 342.87,206.46 398.17,206.46 398.17,184.34 398.17,162.22 342.87,162.22 287.57,162.22 "/>
 </g>
</svg>
